<?xml version="1.0" encoding="UTF-8" standalone="no"?><!-- Generator: Gravit.io --><svg xmlns="http://www.w3.org/2000/svg" xmlns:xlink="http://www.w3.org/1999/xlink" style="isolation:isolate" viewBox="0 0 500 500" width="500pt" height="500pt"><defs><clipPath id="_clipPath_2jVClUlb9nqUOLQDCcr0wurX69o2F3Ek"><rect width="500" height="500"/></clipPath></defs><g clip-path="url(#_clipPath_2jVClUlb9nqUOLQDCcr0wurX69o2F3Ek)"><g><rect x="0" y="153" width="166" height="169" transform="matrix(1,0,0,1,0,0)" fill="rgb(213,99,92)"/><rect x="194" y="377.301" width="106" height="97.699" transform="matrix(1,0,0,1,0,0)" fill="rgb(213,99,92)"/><rect x="30" y="377.301" width="106" height="97.699" transform="matrix(1,0,0,1,0,0)" fill="rgb(170,121,193)"/><rect x="30" y="30" width="106" height="97.699" transform="matrix(1,0,0,1,0,0)" fill="rgb(96,173,81)"/><rect x="194" y="30" width="106" height="97.699" transform="matrix(1,0,0,1,0,0)" fill="rgb(170,121,193)"/><rect x="358" y="30" width="106" height="97.699" transform="matrix(1,0,0,1,0,0)" fill="rgb(213,99,92)"/><rect x="360" y="377.301" width="106" height="97.699" transform="matrix(1,0,0,1,0,0)" fill="rgb(96,173,81)"/><rect x="166" y="153" width="166" height="169" transform="matrix(1,0,0,1,0,0)" fill="rgb(96,173,81)"/><rect x="330" y="153" width="170" height="169" transform="matrix(1,0,0,1,0,0)" fill="rgb(170,121,193)"/><g clip-path="url(#_clipPath_nUUNpIfGl5EBCtfAva7cHXEXMd8bjbsp)"><text transform="matrix(1,0,0,1,32.6,306.6)" style="font-family:'Odibee Sans';font-weight:400;font-size:200px;font-style:normal;fill:#ffffff;stroke:none;">O</text></g><defs><clipPath id="_clipPath_nUUNpIfGl5EBCtfAva7cHXEXMd8bjbsp"><rect x="0" y="0" width="150" height="193" transform="matrix(1,0,0,1,8,135)"/></clipPath></defs><g clip-path="url(#_clipPath_8nVtIHoGrtINTF5OUeA5dXo6yxFsWMcA)"><text transform="matrix(1,0,0,1,198.5,306.6)" style="font-family:'Odibee Sans';font-weight:400;font-size:200px;font-style:normal;fill:#ffffff;stroke:none;">D</text></g><defs><clipPath id="_clipPath_8nVtIHoGrtINTF5OUeA5dXo6yxFsWMcA"><rect x="0" y="0" width="150" height="230" transform="matrix(1,0,0,1,174,135)"/></clipPath></defs><g clip-path="url(#_clipPath_x7sNZ9sjWEdI92zUYN9SnkV46JlfkcNZ)"><text transform="matrix(1,0,0,1,364.5,306.6)" style="font-family:'Odibee Sans';font-weight:400;font-size:200px;font-style:normal;fill:#ffffff;stroke:none;">D</text></g><defs><clipPath id="_clipPath_x7sNZ9sjWEdI92zUYN9SnkV46JlfkcNZ"><rect x="0" y="0" width="150" height="230" transform="matrix(1,0,0,1,340,135)"/></clipPath></defs></g><g><rect x="0" y="153" width="166" height="169" transform="matrix(1,0,0,1,0,0)" fill="rgb(213,99,92)"/><rect x="194" y="377.301" width="106" height="97.699" transform="matrix(1,0,0,1,0,0)" fill="rgb(213,99,92)"/><rect x="30" y="377.301" width="106" height="97.699" transform="matrix(1,0,0,1,0,0)" fill="rgb(170,121,193)"/><rect x="30" y="30" width="106" height="97.699" transform="matrix(1,0,0,1,0,0)" fill="rgb(96,173,81)"/><rect x="194" y="30" width="106" height="97.699" transform="matrix(1,0,0,1,0,0)" fill="rgb(170,121,193)"/><rect x="358" y="30" width="106" height="97.699" transform="matrix(1,0,0,1,0,0)" fill="rgb(213,99,92)"/><rect x="360" y="377.301" width="106" height="97.699" transform="matrix(1,0,0,1,0,0)" fill="rgb(96,173,81)"/><rect x="166" y="153" width="166" height="169" transform="matrix(1,0,0,1,0,0)" fill="rgb(96,173,81)"/><rect x="330" y="153" width="170" height="169" transform="matrix(1,0,0,1,0,0)" fill="rgb(170,121,193)"/><g clip-path="url(#_clipPath_coM3EBe5oEmAsjunrAUxGbLP7fwFX1GH)"><text transform="matrix(1,0,0,1,32.6,306.6)" style="font-family:'Odibee Sans';font-weight:400;font-size:200px;font-style:normal;fill:#ffffff;stroke:none;">O</text></g><defs><clipPath id="_clipPath_coM3EBe5oEmAsjunrAUxGbLP7fwFX1GH"><rect x="0" y="0" width="150" height="193" transform="matrix(1,0,0,1,8,135)"/></clipPath></defs><g clip-path="url(#_clipPath_yRuq6OyniMHJhstTADxTVJCj7VtdSUmS)"><text transform="matrix(1,0,0,1,198.5,306.6)" style="font-family:'Odibee Sans';font-weight:400;font-size:200px;font-style:normal;fill:#ffffff;stroke:none;">D</text></g><defs><clipPath id="_clipPath_yRuq6OyniMHJhstTADxTVJCj7VtdSUmS"><rect x="0" y="0" width="150" height="230" transform="matrix(1,0,0,1,174,135)"/></clipPath></defs><g clip-path="url(#_clipPath_YRrsMI4uPksGyZpbxMIMyb5fL60voQXC)"><text transform="matrix(1,0,0,1,364.5,306.6)" style="font-family:'Odibee Sans';font-weight:400;font-size:200px;font-style:normal;fill:#ffffff;stroke:none;">D</text></g><defs><clipPath id="_clipPath_YRrsMI4uPksGyZpbxMIMyb5fL60voQXC"><rect x="0" y="0" width="150" height="230" transform="matrix(1,0,0,1,340,135)"/></clipPath></defs></g></g></svg>