<?xml version="1.0" encoding="UTF-8" standalone="no"?><!-- Generator: Gravit.io --><svg xmlns="http://www.w3.org/2000/svg" xmlns:xlink="http://www.w3.org/1999/xlink" style="isolation:isolate" viewBox="0 0 500 297" width="500pt" height="297pt"><defs><clipPath id="_clipPath_83usCtIG1LDkSCwb3Eg8iEdb03mXIGqD"><rect width="500" height="297"/></clipPath></defs><g clip-path="url(#_clipPath_83usCtIG1LDkSCwb3Eg8iEdb03mXIGqD)"><rect x="0" y="0" width="166" height="195" transform="matrix(1,0,0,1,0,0)" fill="rgb(213,99,92)"/><rect x="166" y="0" width="166" height="195" transform="matrix(1,0,0,1,0,0)" fill="rgb(96,173,81)"/><rect x="330" y="0" width="170" height="195" transform="matrix(1,0,0,1,0,0)" fill="rgb(170,121,193)"/><g clip-path="url(#_clipPath_zOxY4DiKqeYF82HDoKfqeKjI8MR2aXNb)"><text transform="matrix(1,0,0,1,32.6,171.6)" style="font-family:'Odibee Sans';font-weight:400;font-size:200px;font-style:normal;fill:#ffffff;stroke:none;">O</text></g><defs><clipPath id="_clipPath_zOxY4DiKqeYF82HDoKfqeKjI8MR2aXNb"><rect x="0" y="0" width="150" height="230" transform="matrix(1,0,0,1,8,0)"/></clipPath></defs><g clip-path="url(#_clipPath_m0gzYrJnVu3W49bPGXd2uOpXJewYiOKx)"><text transform="matrix(1,0,0,1,198.5,171.6)" style="font-family:'Odibee Sans';font-weight:400;font-size:200px;font-style:normal;fill:#ffffff;stroke:none;">D</text></g><defs><clipPath id="_clipPath_m0gzYrJnVu3W49bPGXd2uOpXJewYiOKx"><rect x="0" y="0" width="150" height="230" transform="matrix(1,0,0,1,174,0)"/></clipPath></defs><g clip-path="url(#_clipPath_7cwpjwjXbAXrtiK21MgGcoVSE8IQnqoq)"><text transform="matrix(1,0,0,1,364.5,171.6)" style="font-family:'Odibee Sans';font-weight:400;font-size:200px;font-style:normal;fill:#ffffff;stroke:none;">D</text></g><defs><clipPath id="_clipPath_7cwpjwjXbAXrtiK21MgGcoVSE8IQnqoq"><rect x="0" y="0" width="150" height="230" transform="matrix(1,0,0,1,340,0)"/></clipPath></defs><rect x="0" y="195" width="500" height="101.667" transform="matrix(1,0,0,1,0,0)" fill="rgb(102,130,224)"/><g clip-path="url(#_clipPath_HSQjKv071wf1OVb4Na3giwCGyyyU3A8M)"><text transform="matrix(1,0,0,1,74.043,276.516)" style="font-family:'Odibee Sans';font-weight:400;font-size:102px;font-style:normal;font-variant-ligatures:none;letter-spacing:27;fill:#ffffff;stroke:none;">frames</text></g><defs><clipPath id="_clipPath_HSQjKv071wf1OVb4Na3giwCGyyyU3A8M"><rect x="0" y="0" width="500" height="107.667" transform="matrix(1,0,0,1,0,189)"/></clipPath></defs></g></svg>