<svg data-v-423bf9ae="" xmlns="http://www.w3.org/2000/svg" viewBox="0 0 157.81785216380015 60" class="font"><!----><!----><!----><g data-v-423bf9ae="" id="559103b8-ce4d-4e10-8a54-8c308365e553" fill="black" transform="matrix(5.410279456668789,0,0,5.410279456668789,-4.38232495445294,-14.553652524854876)"><path d="M4.18 13.78L4.18 13.78L4.18 13.78Q3.39 13.78 2.77 13.48L2.77 13.48L2.77 13.48Q2.14 13.19 1.71 12.69L1.71 12.69L1.71 12.69Q1.27 12.19 1.04 11.53L1.04 11.53L1.04 11.53Q0.81 10.88 0.81 10.16L0.81 10.16L0.81 10.16Q0.81 9.34 1.09 8.63L1.09 8.63L1.09 8.63Q1.38 7.92 1.89 7.40L1.89 7.40L1.89 7.40Q2.39 6.87 3.08 6.57L3.08 6.57L3.08 6.57Q3.76 6.26 4.55 6.26L4.55 6.26L4.55 6.26Q5.35 6.26 5.98 6.56L5.98 6.56L5.98 6.56Q6.60 6.86 7.03 7.37L7.03 7.37L7.03 7.37Q7.46 7.88 7.69 8.53L7.69 8.53L7.69 8.53Q7.92 9.19 7.92 9.91L7.92 9.91L7.92 9.91Q7.92 10.72 7.63 11.43L7.63 11.43L7.63 11.43Q7.34 12.13 6.84 12.66L6.84 12.66L6.84 12.66Q6.34 13.18 5.65 13.48L5.65 13.48L5.65 13.48Q4.97 13.78 4.18 13.78ZM4.37 12.89L4.37 12.89L4.37 12.89Q4.94 12.89 5.41 12.65L5.41 12.65L5.41 12.65Q5.87 12.42 6.20 12.03L6.20 12.03L6.20 12.03Q6.53 11.64 6.71 11.13L6.71 11.13L6.71 11.13Q6.89 10.62 6.89 10.07L6.89 10.07L6.89 10.07Q6.89 9.53 6.72 9.01L6.72 9.01L6.72 9.01Q6.55 8.48 6.22 8.07L6.22 8.07L6.22 8.07Q5.90 7.66 5.43 7.41L5.43 7.41L5.43 7.41Q4.96 7.16 4.35 7.16L4.35 7.16L4.35 7.16Q3.79 7.16 3.33 7.39L3.33 7.39L3.33 7.39Q2.86 7.62 2.53 8.00L2.53 8.00L2.53 8.00Q2.19 8.39 2.01 8.91L2.01 8.91L2.01 8.91Q1.83 9.42 1.83 9.98L1.83 9.98L1.83 9.98Q1.83 10.51 2.00 11.03L2.00 11.03L2.00 11.03Q2.17 11.55 2.50 11.97L2.50 11.97L2.50 11.97Q2.82 12.38 3.29 12.63L3.29 12.63L3.29 12.63Q3.77 12.89 4.37 12.89ZM9.98 13.64L9.98 2.69L10.96 2.69L10.96 13.64L9.98 13.64ZM13.47 13.64L13.47 6.40L14.45 6.40L14.45 13.64L13.47 13.64ZM13.25 3.97L13.25 3.97L13.25 3.97Q13.25 3.82 13.30 3.69L13.30 3.69L13.30 3.69Q13.36 3.56 13.46 3.47L13.46 3.47L13.46 3.47Q13.56 3.37 13.69 3.31L13.69 3.31L13.69 3.31Q13.82 3.25 13.96 3.25L13.96 3.25L13.96 3.25Q14.11 3.25 14.24 3.31L14.24 3.31L14.24 3.31Q14.37 3.37 14.46 3.47L14.46 3.47L14.46 3.47Q14.56 3.56 14.62 3.69L14.62 3.69L14.62 3.69Q14.68 3.82 14.68 3.97L14.68 3.97L14.68 3.97Q14.68 4.12 14.62 4.25L14.62 4.25L14.62 4.25Q14.56 4.38 14.46 4.48L14.46 4.48L14.46 4.48Q14.37 4.57 14.24 4.63L14.24 4.63L14.24 4.63Q14.11 4.68 13.96 4.68L13.96 4.68L13.96 4.68Q13.82 4.68 13.69 4.63L13.69 4.63L13.69 4.63Q13.56 4.57 13.46 4.48L13.46 4.48L13.46 4.48Q13.36 4.38 13.30 4.25L13.30 4.25L13.30 4.25Q13.25 4.12 13.25 3.97ZM18.89 13.64L16.12 6.40L17.27 6.40L19.10 11.52L19.41 12.64L19.55 12.64L19.85 11.52L21.68 6.40L22.72 6.40L19.95 13.64L18.89 13.64ZM29.71 12.43L29.71 13.10L29.71 13.10Q29.48 13.25 29.18 13.38L29.18 13.38L29.18 13.38Q28.88 13.50 28.54 13.59L28.54 13.59L28.54 13.59Q28.20 13.69 27.85 13.73L27.85 13.73L27.85 13.73Q27.50 13.78 27.19 13.78L27.19 13.78L27.19 13.78Q26.54 13.78 25.93 13.55L25.93 13.55L25.93 13.55Q25.32 13.32 24.85 12.87L24.85 12.87L24.85 12.87Q24.37 12.41 24.08 11.72L24.08 11.72L24.08 11.72Q23.80 11.04 23.80 10.12L23.80 10.12L23.80 10.12Q23.80 9.22 24.08 8.50L24.08 8.50L24.08 8.50Q24.36 7.79 24.82 7.29L24.82 7.29L24.82 7.29Q25.29 6.79 25.89 6.53L25.89 6.53L25.89 6.53Q26.50 6.26 27.13 6.26L27.13 6.26L27.13 6.26Q27.71 6.26 28.22 6.47L28.22 6.47L28.22 6.47Q28.74 6.69 29.13 7.08L29.13 7.08L29.13 7.08Q29.52 7.47 29.75 8.04L29.75 8.04L29.75 8.04Q29.98 8.60 29.98 9.30L29.98 9.30L29.98 9.30Q29.98 9.45 29.96 9.68L29.96 9.68L29.96 9.68Q29.95 9.92 29.91 10.16L29.91 10.16L24.82 10.16L24.82 10.16Q24.82 10.75 25.02 11.24L25.02 11.24L25.02 11.24Q25.22 11.73 25.59 12.09L25.59 12.09L25.59 12.09Q25.96 12.46 26.49 12.66L26.49 12.66L26.49 12.66Q27.02 12.86 27.69 12.86L27.69 12.86L27.69 12.86Q27.86 12.86 28.11 12.84L28.11 12.84L28.11 12.84Q28.35 12.82 28.62 12.78L28.62 12.78L28.62 12.78Q28.90 12.73 29.18 12.65L29.18 12.65L29.18 12.65Q29.46 12.56 29.71 12.43L29.71 12.43ZM24.82 9.38L29.02 9.38L29.02 9.38Q29.02 8.83 28.85 8.41L28.85 8.41L28.85 8.41Q28.68 8.00 28.40 7.72L28.40 7.72L28.40 7.72Q28.12 7.44 27.75 7.30L27.75 7.30L27.75 7.30Q27.39 7.16 27.00 7.16L27.00 7.16L27.00 7.16Q26.53 7.16 26.13 7.35L26.13 7.35L26.13 7.35Q25.74 7.54 25.45 7.85L25.45 7.85L25.45 7.85Q25.16 8.17 25.00 8.57L25.00 8.57L25.00 8.57Q24.83 8.97 24.82 9.38L24.82 9.38Z"></path></g><!----><!----></svg>